<?xml version="1.0" standalone="no"?>
<!DOCTYPE svg PUBLIC "-//W3C//DTD SVG 20010904//EN"
 "http://www.w3.org/TR/2001/REC-SVG-20010904/DTD/svg10.dtd">
<svg version="1.0" xmlns="http://www.w3.org/2000/svg"
 width="579.000000pt" height="579.000000pt" viewBox="0 0 579.000000 579.000000"
 preserveAspectRatio="xMidYMid meet">
<metadata>
Created by potrace 1.11, written by Peter Selinger 2001-2013
</metadata>
<g transform="translate(0.000000,579.000000) scale(0.100000,-0.100000)"
fill="#000000" stroke="none">
<path d="M728 5780 c-202 -35 -393 -144 -526 -301 -76 -89 -154 -242 -182
-354 -20 -80 -20 -109 -18 -2240 l3 -2160 21 -70 c50 -167 116 -284 221 -389
117 -118 256 -197 420 -239 l88 -22 2140 0 2140 0 90 23 c343 87 592 351 650
691 14 77 15 347 12 2202 -3 1946 -4 2119 -20 2182 -80 321 -308 561 -627 659
l-75 23 -2145 1 c-1180 1 -2166 -2 -2192 -6z m120 -913 c1 -176 6 -307 11
-305 5 2 136 141 292 311 l283 307 155 -2 c139 -3 156 -5 156 -20 0 -9 -93
-118 -207 -243 -115 -124 -208 -231 -208 -238 0 -12 243 -279 259 -285 5 -2
111 167 236 375 126 208 235 386 243 396 14 15 31 17 140 15 l125 -3 242 -390
c133 -214 247 -391 254 -393 9 -3 11 93 11 384 -1 213 3 391 8 396 4 4 273 7
598 6 l589 -3 3 -122 3 -121 -166 -122 c-91 -68 -165 -128 -163 -135 4 -17
338 -277 351 -272 5 1 113 176 241 387 l233 385 125 3 c109 2 126 0 140 -15
36 -42 608 -975 603 -983 -8 -13 -832 -13 -840 0 -3 5 17 54 45 110 l50 100
155 0 c117 0 155 3 155 13 -1 21 -288 482 -301 482 -7 0 -95 -139 -196 -310
-101 -170 -197 -331 -213 -357 l-29 -48 -1066 0 c-1008 0 -1065 1 -1065 18 1
9 22 58 48 107 l47 90 158 3 c134 2 158 5 153 17 -17 45 -300 495 -306 488 -5
-4 -103 -168 -219 -363 l-210 -355 -180 -3 -179 -2 -139 150 c-76 83 -143 149
-149 148 -6 -2 -73 -69 -148 -151 l-138 -148 -137 3 -136 3 -3 490 c-1 270 0
496 3 503 3 9 38 12 142 10 l138 -3 3 -308z m1988 -1788 c534 -52 1032 -284
1421 -662 146 -142 224 -235 335 -402 237 -357 388 -836 388 -1235 l0 -90
-1200 0 -1200 0 0 1193 c0 657 3 1197 7 1200 10 10 125 8 249 -4z m-1371 -88
l39 -41 -55 -58 c-280 -289 -428 -735 -379 -1142 37 -305 165 -585 371 -812
l72 -80 -49 -49 c-26 -27 -52 -49 -56 -49 -14 0 -166 180 -222 264 -157 233
-243 482 -265 766 -35 450 115 877 427 1212 50 54 54 54 117 -11z m239 -290
l52 -48 -67 -78 c-114 -133 -200 -306 -236 -475 -21 -102 -24 -325 -5 -415 44
-204 136 -383 270 -527 l44 -48 -42 -50 c-23 -27 -48 -50 -55 -50 -17 0 -120
118 -171 195 -145 217 -206 421 -206 680 -1 246 66 468 201 670 35 54 150 193
160 194 2 1 27 -21 55 -48z m290 -290 l29 -30 -42 -48 c-56 -63 -108 -157
-139 -251 -35 -109 -37 -274 -3 -382 31 -101 82 -196 141 -262 l49 -55 -53
-52 -53 -52 -43 48 c-140 159 -210 341 -211 550 0 59 5 131 10 159 29 151 106
302 209 416 25 27 25 27 51 9 14 -11 39 -33 55 -50z"/>
<path d="M3127 4933 c-4 -3 -7 -127 -7 -275 l0 -268 265 0 c146 0 265 3 265 8
0 4 -72 68 -159 142 -88 74 -160 142 -160 150 0 8 67 64 149 124 83 60 150
112 150 117 0 10 -493 12 -503 2z"/>
<path d="M2760 2890 l0 -110 50 0 50 0 0 110 0 110 -50 0 -50 0 0 -110z"/>
<path d="M3536 2781 c-13 -20 -116 -255 -116 -264 0 -5 5 -7 11 -5 8 3 129
259 129 274 0 8 -19 4 -24 -5z"/>
<path d="M4087 2328 l-66 -73 26 -27 c15 -16 32 -28 38 -28 6 0 40 29 75 65
l65 65 -36 36 -36 36 -66 -74z"/>
<path d="M3628 2303 c-9 -10 -208 -322 -444 -693 -267 -422 -429 -687 -432
-706 -4 -30 0 -34 56 -67 81 -48 97 -52 119 -30 26 27 783 1446 783 1469 0 43
-53 60 -82 27z"/>
<path d="M4508 1707 c-70 -42 -114 -75 -108 -81 10 -10 231 122 238 142 6 20
-9 13 -130 -61z"/>
<path d="M4720 910 l0 -50 90 0 90 0 0 50 0 50 -90 0 -90 0 0 -50z"/>
</g>
</svg>
