<?xml version="1.0" standalone="no"?>
<!DOCTYPE svg PUBLIC "-//W3C//DTD SVG 20010904//EN"
 "http://www.w3.org/TR/2001/REC-SVG-20010904/DTD/svg10.dtd">
<svg version="1.0" xmlns="http://www.w3.org/2000/svg"
 width="2346.000000pt" height="2346.000000pt" viewBox="0 0 2346.000000 2346.000000"
 preserveAspectRatio="xMidYMid meet">
<metadata>
Created by potrace 1.11, written by Peter Selinger 2001-2013
</metadata>
<g transform="translate(0.000000,2346.000000) scale(0.100000,-0.100000)"
fill="#000000" stroke="none">
<path d="M11278 23445 c-1 -2 -70 -6 -153 -10 -82 -4 -166 -8 -185 -10 -19 -2
-78 -6 -130 -10 -52 -3 -111 -8 -130 -10 -42 -4 -149 -15 -199 -20 -97 -10
-226 -25 -250 -30 -9 -2 -44 -6 -76 -10 -33 -3 -85 -10 -115 -15 -30 -5 -73
-12 -95 -15 -110 -16 -306 -49 -410 -70 -38 -8 -86 -17 -105 -20 -19 -3 -75
-15 -125 -26 -49 -12 -97 -22 -106 -24 -266 -55 -603 -143 -904 -236 -139 -44
-420 -135 -445 -146 -8 -3 -19 -7 -25 -9 -29 -7 -205 -73 -226 -84 -13 -8 -26
-13 -29 -13 -12 1 -319 -120 -435 -171 -16 -8 -56 -26 -88 -40 -32 -14 -59
-26 -62 -26 -2 0 -36 -15 -77 -34 -40 -18 -95 -44 -123 -56 -73 -33 -468 -230
-571 -286 -467 -249 -951 -554 -1389 -873 -142 -104 -428 -322 -445 -341 -3
-3 -27 -23 -55 -45 -27 -21 -61 -49 -75 -61 -14 -12 -61 -52 -105 -89 -74 -62
-169 -145 -235 -205 -15 -14 -70 -63 -121 -110 -100 -90 -544 -531 -644 -640
-227 -246 -429 -483 -625 -730 -28 -36 -56 -72 -63 -80 -33 -41 -249 -333
-285 -385 -23 -33 -54 -78 -70 -100 -142 -202 -387 -584 -490 -765 -11 -19
-52 -91 -91 -158 -39 -68 -71 -126 -71 -128 0 -3 -20 -40 -44 -83 -71 -125
-356 -699 -356 -717 0 -2 -16 -39 -36 -81 -48 -106 -55 -121 -109 -253 -26
-63 -51 -124 -56 -135 -4 -11 -18 -45 -29 -75 -11 -30 -25 -64 -29 -75 -18
-39 -62 -158 -82 -219 -11 -33 -25 -70 -30 -81 -30 -66 -245 -755 -264 -846
-2 -9 -17 -67 -34 -130 -47 -175 -104 -430 -157 -694 -21 -106 -34 -176 -38
-205 -2 -19 -7 -44 -9 -55 -3 -11 -8 -40 -11 -65 -3 -25 -8 -54 -10 -65 -17
-90 -69 -480 -81 -605 -2 -30 -7 -75 -10 -100 -3 -25 -8 -74 -10 -110 -7 -103
-16 -211 -20 -260 -27 -292 -27 -1252 0 -1570 3 -30 7 -85 10 -122 8 -106 16
-199 20 -243 20 -192 19 -181 51 -420 31 -235 33 -245 38 -272 3 -11 8 -43 12
-70 3 -26 8 -57 11 -68 2 -11 6 -35 8 -53 15 -103 132 -650 180 -842 254
-1005 673 -2044 1182 -2925 12 -22 27 -49 33 -60 6 -11 16 -29 23 -40 7 -11
32 -54 56 -95 183 -309 482 -754 711 -1055 131 -173 156 -205 242 -310 71 -88
261 -313 311 -369 227 -254 259 -288 522 -551 265 -265 351 -346 585 -551 464
-405 966 -778 1492 -1107 149 -93 494 -297 503 -297 3 0 22 -10 43 -23 80 -50
488 -259 682 -350 183 -85 224 -103 385 -172 179 -76 413 -169 580 -230 197
-73 690 -233 785 -255 19 -4 67 -17 105 -28 188 -54 446 -117 705 -172 158
-33 163 -34 248 -50 31 -5 68 -12 82 -15 13 -3 42 -7 64 -11 22 -3 43 -7 46
-9 3 -1 28 -6 55 -9 28 -4 75 -11 105 -16 30 -5 75 -12 100 -15 25 -3 72 -10
105 -15 33 -5 84 -12 114 -15 30 -4 61 -8 70 -10 9 -1 50 -6 91 -10 41 -3 86
-8 100 -10 14 -2 59 -7 100 -10 41 -4 82 -8 90 -10 9 -2 65 -6 125 -10 61 -4
126 -8 145 -10 261 -27 1242 -27 1559 0 25 2 87 6 136 10 50 3 101 8 115 10
14 2 63 6 110 10 47 3 96 8 110 10 14 3 50 7 80 10 30 3 71 7 90 10 19 2 60 7
90 11 30 3 62 8 71 9 9 2 40 6 69 10 29 4 62 9 74 11 12 2 41 7 66 10 25 3 56
7 70 10 117 20 158 27 180 30 14 2 128 24 253 49 364 72 672 149 1107 275 257
74 883 298 1065 380 22 10 81 35 130 55 50 20 115 48 145 62 30 14 71 32 90
40 201 90 619 299 795 398 407 228 736 431 995 612 41 29 83 58 94 65 121 82
407 295 576 431 8 7 35 28 60 47 25 19 56 44 70 56 14 13 70 60 125 105 55 46
105 88 111 94 6 5 39 35 74 65 35 30 75 66 90 80 14 14 62 57 105 95 86 76
563 549 660 655 33 36 94 103 135 149 41 46 80 89 85 95 69 75 346 407 405
486 14 19 34 45 46 59 195 244 509 695 713 1026 51 83 103 166 115 185 12 19
27 46 34 60 6 14 18 34 24 45 158 245 503 938 670 1345 32 80 63 154 68 165
103 227 363 1007 444 1330 8 33 29 114 46 180 26 103 77 324 94 405 10 50 67
336 71 360 2 14 7 36 10 50 3 14 7 41 10 60 2 19 9 64 15 100 6 36 13 76 15
90 2 14 8 54 14 90 5 36 13 92 17 125 3 33 8 67 9 76 2 9 6 40 9 70 4 30 9 77
12 104 3 28 7 61 9 75 2 14 6 61 10 104 4 43 8 87 10 96 2 10 6 64 10 121 3
57 8 122 10 144 27 302 27 1416 0 1575 -2 14 -7 71 -10 127 -4 56 -8 114 -10
130 -2 15 -7 62 -10 103 -3 41 -8 86 -10 100 -2 14 -6 50 -10 80 -3 30 -8 71
-10 90 -3 19 -7 53 -10 75 -3 22 -7 58 -10 80 -3 22 -8 60 -10 85 -3 25 -8 52
-10 60 -2 8 -7 39 -10 69 -4 30 -9 63 -11 75 -2 12 -7 37 -9 56 -3 19 -8 44
-10 56 -3 12 -7 39 -11 60 -19 130 -122 609 -189 884 -62 252 -229 791 -330
1065 -20 55 -40 111 -45 125 -14 46 -167 424 -223 550 -119 272 -306 660 -411
850 -19 36 -40 74 -45 86 -20 45 -246 433 -342 587 -115 184 -359 547 -452
674 -137 186 -161 218 -167 223 -4 3 -11 12 -16 21 -5 9 -23 34 -40 55 -18 22
-64 80 -103 129 -147 185 -343 420 -380 455 -9 9 -45 49 -81 90 -190 219 -621
650 -911 911 -34 31 -68 60 -154 134 -39 33 -72 62 -75 65 -15 16 -297 245
-370 300 -47 36 -90 70 -97 75 -7 6 -18 15 -26 21 -28 24 -245 182 -307 224
-36 25 -67 48 -70 51 -6 7 -423 285 -475 316 -11 7 -105 64 -210 127 -181 109
-345 202 -519 296 -91 49 -533 270 -540 270 -2 0 -46 20 -98 44 -207 97 -582
252 -753 313 -38 13 -84 31 -100 38 -81 36 -628 212 -860 276 -227 62 -548
142 -665 164 -41 8 -87 18 -165 35 -22 5 -78 16 -125 25 -47 8 -96 18 -110 20
-40 8 -271 45 -375 60 -22 4 -50 8 -61 10 -12 2 -48 7 -80 10 -33 4 -67 9 -78
11 -10 2 -44 6 -75 9 -31 3 -69 8 -86 10 -16 2 -57 7 -90 10 -33 3 -80 8 -105
10 -118 13 -180 18 -375 30 -60 3 -130 9 -155 11 -51 6 -1056 14 -1062 9z"/>
</g>
</svg>
